Coordinates
version=1
nRows=27
nColumns=38
inDegrees=no

Units are S.I. units (second, meters, Newtons, ...)
If the header above contains a line with 'inDegrees', this indicates whether rotational values are in degrees (yes) or radians (no).

endheader
time	pelvis_tilt	pelvis_list	pelvis_rotation	pelvis_tx	pelvis_ty	pelvis_tz	hip_flexion_r	hip_adduction_r	hip_rotation_r	knee_angle_r	ankle_angle_r	subtalar_angle_r	mtp_angle_r	hip_flexion_l	hip_adduction_l	hip_rotation_l	knee_angle_l	ankle_angle_l	subtalar_angle_l	mtp_angle_l	lumbar_extension	lumbar_bending	lumbar_rotation	arm_flex_r	arm_add_r	arm_rot_r	elbow_flex_r	pro_sup_r	wrist_flex_r	wrist_dev_r	arm_flex_l	arm_add_l	arm_rot_l	elbow_flex_l	pro_sup_l	wrist_flex_l	wrist_dev_l
0	0.167277	1.31388	-1.74124	0.709289	1.85118	0.9509	-0.232217	-0.024073	-0.217208	0.197811	0.145463	0	0	0.228067	-0.0953872	-0.11196	1.04266	0.0239403	0	0	-0.40206	-0.0166857	0.0601411	-0.0957831	-0.397991	0.240724	0.891259	1.16686	0	0	0.112323	-0.397225	0.72243	0.867268	0.657371	0	0
0.01	0.170098	1.31354	-1.74803	0.708307	1.84299	0.950685	-0.247953	-0.0234313	-0.213679	0.186166	0.14891	0	0	0.234935	-0.0948494	-0.12616	0.998998	0.0386751	0	0	-0.403567	-0.0195809	0.0651063	-0.0933288	-0.400077	0.234024	0.902281	1.16566	0	0	0.110784	-0.395214	0.722498	0.864689	0.656218	0	0
0.02	0.173321	1.31111	-1.75385	0.707547	1.83481	0.950538	-0.266562	-0.023273	-0.21224	0.173743	0.152449	0	0	0.236935	-0.0928633	-0.140132	0.949597	0.049368	0	0	-0.407504	-0.0225975	0.0682908	-0.0903874	-0.402448	0.230077	0.913967	1.16881	0	0	0.109585	-0.393675	0.722896	0.862648	0.655502	0	0
0.03	0.175943	1.30911	-1.75811	0.706969	1.82664	0.950212	-0.284766	-0.0228924	-0.2118	0.161545	0.156471	0	0	0.237654	-0.0903626	-0.153739	0.896277	0.0573151	0	0	-0.411116	-0.0251084	0.0703436	-0.0869436	-0.404846	0.227501	0.924743	1.17333	0	0	0.108582	-0.392091	0.723714	0.859909	0.655424	0	0
0.04	0.178043	1.30696	-1.76232	0.706352	1.81833	0.949777	-0.30326	-0.0226148	-0.210921	0.149314	0.160568	0	0	0.236029	-0.0878441	-0.168726	0.839255	0.0633358	0	0	-0.414826	-0.0277916	0.0724949	-0.0832851	-0.406791	0.225223	0.934555	1.17797	0	0	0.107495	-0.390683	0.725276	0.856514	0.655942	0	0
0.05	0.178829	1.30471	-1.76457	0.705847	1.80996	0.949207	-0.32199	-0.0219557	-0.211024	0.13731	0.16446	0	0	0.232937	-0.084761	-0.18298	0.779522	0.0679455	0	0	-0.41875	-0.0299549	0.0739078	-0.0796331	-0.408219	0.222657	0.943872	1.18157	0	0	0.10647	-0.389725	0.727904	0.853267	0.656608	0	0
0.06	0.178666	1.3034	-1.76568	0.705394	1.80162	0.948432	-0.339126	-0.0209545	-0.210747	0.126655	0.168565	0	0	0.229276	-0.0820827	-0.199693	0.716509	0.0725262	0	0	-0.422002	-0.0317173	0.0752376	-0.075851	-0.408876	0.219056	0.952253	1.18373	0	0	0.106026	-0.388759	0.731571	0.848992	0.657088	0	0
0.07	0.178844	1.30319	-1.767	0.705059	1.79332	0.947433	-0.353974	-0.0202849	-0.210199	0.11825	0.173465	0	0	0.225367	-0.0790482	-0.218644	0.650605	0.0768933	0	0	-0.424228	-0.0332915	0.0763338	-0.0716024	-0.409585	0.216783	0.959531	1.18505	0	0	0.106032	-0.387379	0.736159	0.843384	0.656821	0	0
0.08	0.179268	1.30383	-1.76709	0.704979	1.78497	0.946226	-0.367118	-0.0195404	-0.21176	0.111886	0.179648	0	0	0.221446	-0.074619	-0.236224	0.582829	0.0811813	0	0	-0.425585	-0.0342093	0.0759356	-0.0672225	-0.410045	0.215989	0.966126	1.18953	0	0	0.106132	-0.385971	0.741548	0.837131	0.655692	0	0
0.09	0.180354	1.30473	-1.76641	0.705157	1.77656	0.944879	-0.379842	-0.0186796	-0.214455	0.106326	0.186431	0	0	0.21673	-0.0680712	-0.250226	0.513077	0.0846284	0	0	-0.42662	-0.0347716	0.0741634	-0.0628245	-0.409956	0.214898	0.971489	1.19459	0	0	0.106089	-0.384806	0.746928	0.831949	0.654968	0	0
0.1	0.182276	1.30571	-1.7658	0.705552	1.76814	0.943425	-0.391651	-0.0181083	-0.21823	0.102574	0.194046	0	0	0.210816	-0.0593564	-0.260282	0.441085	0.0865513	0	0	-0.427708	-0.035212	0.0717288	-0.0585905	-0.409328	0.212454	0.975904	1.19879	0	0	0.106259	-0.383737	0.753346	0.825956	0.653704	0	0
0.11	0.184715	1.30714	-1.76465	0.706201	1.75969	0.941804	-0.402351	-0.0175959	-0.223232	0.100408	0.202403	0	0	0.204353	-0.0485358	-0.264409	0.367918	0.0879402	0	0	-0.428536	-0.0352108	0.0681931	-0.0543573	-0.408324	0.209516	0.979586	1.20138	0	0	0.106338	-0.382446	0.758859	0.820966	0.652641	0	0
0.12	0.189462	1.30833	-1.76636	0.706854	1.75112	0.940127	-0.412484	-0.0182354	-0.228354	0.0999399	0.211506	0	0	0.195547	-0.0358556	-0.26302	0.293291	0.0884757	0	0	-0.429429	-0.0361835	0.0646903	-0.0499533	-0.406973	0.207586	0.981889	1.20468	0	0	0.106071	-0.381129	0.763095	0.816966	0.652106	0	0
0.13	0.196842	1.30895	-1.77136	0.70751	1.74236	0.938443	-0.422667	-0.0200463	-0.23365	0.100663	0.22093	0	0	0.183997	-0.0217966	-0.254588	0.218508	0.0871616	0	0	-0.430402	-0.038401	0.0613122	-0.0454862	-0.404947	0.206236	0.982472	1.21109	0	0	0.105169	-0.380253	0.767927	0.811862	0.651407	0	0
0.14	0.202463	1.30965	-1.77458	0.708198	1.73347	0.936668	-0.432069	-0.0214321	-0.239438	0.103154	0.230667	0	0	0.171893	-0.00867812	-0.237901	0.148373	0.0834677	0	0	-0.431048	-0.0403677	0.0579864	-0.0409945	-0.402443	0.205377	0.981574	1.22067	0	0	0.104059	-0.379802	0.774389	0.80588	0.650847	0	0
0.15	0.203812	1.30981	-1.77382	0.708852	1.72449	0.934839	-0.441232	-0.022064	-0.245403	0.107766	0.240784	0	0	0.159595	0.00191368	-0.216751	0.0863452	0.0757866	0	0	-0.432361	-0.0416696	0.0551409	-0.0365645	-0.399615	0.204197	0.979681	1.22737	0	0	0.102985	-0.37994	0.780984	0.802137	0.650859	0	0
0.16	0.201296	1.30941	-1.76984	0.709449	1.71535	0.932971	-0.449966	-0.0223121	-0.251751	0.114831	0.251126	0	0	0.149318	0.00925537	-0.196311	0.0379021	0.0663484	0	0	-0.434141	-0.0424853	0.0527988	-0.0321262	-0.397021	0.204981	0.977345	1.2333	0	0	0.101315	-0.38005	0.784265	0.800189	0.647023	0	0
0.17	0.197679	1.30848	-1.76572	0.709988	1.70601	0.931119	-0.45816	-0.0231247	-0.257995	0.124409	0.261681	0	0	0.142727	0.0141046	-0.180557	0.0069295	0.0589474	0	0	-0.435918	-0.0437921	0.0520048	-0.0288633	-0.394281	0.206022	0.974497	1.2388	0	0	0.100917	-0.380686	0.796133	0.794387	0.647071	0	0
0.18	0.195218	1.30684	-1.76411	0.710393	1.69648	0.929345	-0.465642	-0.0253273	-0.263584	0.136891	0.272671	0	0	0.140937	0.0172499	-0.172874	0	0.0579552	0	0	-0.43797	-0.0463554	0.0522201	-0.0257317	-0.391132	0.207611	0.970207	1.24209	0	0	0.100051	-0.381265	0.805577	0.78878	0.646124	0	0
0.19	0.194711	1.30406	-1.76538	0.710719	1.68677	0.927706	-0.473268	-0.029051	-0.268975	0.151608	0.283579	0	0	0.141439	0.0198606	-0.16897	0.000724565	0.0604067	0	0	-0.440753	-0.0502377	0.0531468	-0.0229904	-0.387755	0.209319	0.965036	1.2435	0	0	0.098879	-0.3818	0.81123	0.784997	0.642135	0	0
0.2	0.190415	1.29995	-1.76269	0.710957	1.67678	0.926324	-0.490723	-0.0283546	-0.258396	0.148728	0.283529	0	0	0.143937	0.0202769	-0.168632	0.0205333	0.0662255	0	0	-0.444644	-0.053687	0.0545102	-0.021095	-0.383773	0.210731	0.958956	1.24395	0	0	0.0976069	-0.382596	0.814849	0.782485	0.637656	0	0
0.21	0.194407	1.29768	-1.76997	0.711339	1.66665	0.924616	-0.488558	-0.0379412	-0.276218	0.183302	0.30089	0	0	0.151996	0.0217132	-0.172431	0.0535713	0.0725661	0	0	-0.445662	-0.0593891	0.0572895	-0.0203813	-0.380385	0.21176	0.952522	1.2436	0	0	0.0966411	-0.383414	0.822186	0.779037	0.631269	0	0
0.22	0.263466	1.31182	-1.85466	0.710257	1.65676	0.919905	-0.400063	-0.125598	-0.448385	0.381104	0.398246	0	0	0.163097	0.0389022	-0.150756	0.0516541	0.0507916	0	0	-0.424355	-0.0846093	0.0681824	-0.0211319	-0.37448	0.213678	0.944638	1.24335	0	0	0.0943697	-0.388658	0.832573	0.778854	0.623489	0	0
0.23	0.211353	1.30365	-1.79628	0.712227	1.64555	0.920028	-0.45966	-0.0686686	-0.327444	0.284984	0.347808	0	0	0.18913	0.0205575	-0.191142	0.154829	0.0910617	0	0	-0.433377	-0.071911	0.066303	-0.0231003	-0.374902	0.217286	0.93815	1.24171	0	0	0.0937847	-0.385197	0.846315	0.769227	0.608483	0	0
0.24	0.177604	1.2975	-1.76508	0.712476	1.63437	0.919559	-0.498231	-0.0498614	-0.279636	0.242483	0.321243	0	0	0.191353	0.0096987	-0.196756	0.201696	0.10048	0	0	-0.438424	-0.0682256	0.0707206	-0.0246607	-0.372495	0.221634	0.931015	1.24199	0	0	0.0906177	-0.385376	0.852538	0.764645	0.603883	0	0
0.25	0.168213	1.29724	-1.76149	0.712936	1.62299	0.918188	-0.502269	-0.0539362	-0.276855	0.261319	0.322082	0	0	0.198089	0.00525201	-0.20236	0.240918	0.105856	0	0	-0.434802	-0.0706298	0.0773826	-0.0285162	-0.370875	0.22572	0.924089	1.24321	0	0	0.0871273	-0.385231	0.860702	0.759864	0.59763	0	0
0.26	0.164647	1.29772	-1.76438	0.71356	1.61135	0.916977	-0.50383	-0.0610378	-0.275205	0.283433	0.322457	0	0	0.201279	0.00335251	-0.207407	0.267669	0.0998413	0	0	-0.42944	-0.074517	0.0843149	-0.033199	-0.369035	0.229495	0.915916	1.24543	0	0	0.0830685	-0.384511	0.868328	0.754312	0.589982	0	0
